<svg data-name="Layer 1" viewBox="0 0 512 512" xmlns="http://www.w3.org/2000/svg"><path d="M450.08 247.82A70.14 70.14 0 0 0 418.49 115h-1.33V96.71A24.76 24.76 0 0 0 392.42 72H29.23A24.76 24.76 0 0 0 4.49 96.71v237.94a24.76 24.76 0 0 0 24.74 24.73H158v70.44h-42.21a5.1 5.1 0 0 0 0 10.2H348.3a32.47 32.47 0 0 0 32.44-32.44v-81.2a5.1 5.1 0 1 0-10.2 0v81.2a22.26 22.26 0 0 1-22.24 22.24H244.4a35.56 35.56 0 0 1 35.13-30.4h52.2a5.1 5.1 0 0 0 5.1-5.1v-38.77a5.32 5.32 0 0 0 .16-1.27 5.24 5.24 0 0 0-.16-1.26v-30.31a67.42 67.42 0 0 1 67.34-67.34H430a67.42 67.42 0 0 1 67.34 67.34v112.21a5.1 5.1 0 1 0 10.2 0V322.71a77.68 77.68 0 0 0-57.46-74.89Zm28.37-62.61a60 60 0 1 1-60-60 60 60 0 0 1 60 60ZM14.69 334.65v-11.53h311.94v26.06H29.23a14.54 14.54 0 0 1-14.54-14.53Zm101.1-117.21a27.76 27.76 0 1 1 27.75-27.76 27.79 27.79 0 0 1-27.75 27.76Zm9.52 10.2c15.24 0 28.8 5.54 38.33 15.76l26.2 25.92a5 5 0 0 0 3.84 1.47 5.09 5.09 0 0 0 3.67-1.84l28.53-34.5a7 7 0 0 1 9.58-1.06 6.93 6.93 0 0 1 1.34 10l-38.42 47.57a7.29 7.29 0 0 1-10.72.69l-26.29-25.16a5.09 5.09 0 0 0-8.62 3.68v42.77h-80.5v-52.7a32.64 32.64 0 0 1 32.61-32.6Zm42.87 202.18v-70.44h68.33v59a5.38 5.38 0 0 0 .09.9 45.19 45.19 0 0 0-2.47 10.55Zm111.35-40.6a45.57 45.57 0 0 0-32.82 13.95v-43.79h79.92v29.84Zm47.72-76.3H163V282.1l17.6 16.9a17.37 17.37 0 0 0 13.21 4.81 17.54 17.54 0 0 0 12.5-6.46l38.43-47.57a17.09 17.09 0 0 0-2.08-23.65L267.22 172a5.1 5.1 0 1 0-9.28-4.21l-24.56 54.11A17.14 17.14 0 0 0 218 228l-25 30.2-22-21.91A59.14 59.14 0 0 0 139.89 219a38 38 0 1 0-47.72.38 42.87 42.87 0 0 0-30.12 40.88v52.68H14.69V96.71a14.55 14.55 0 0 1 14.54-14.53h363.19A14.55 14.55 0 0 1 407 96.71V116a70.13 70.13 0 0 0-21 131.33 77.73 77.73 0 0 0-58.75 65.59Z" fill="#ffffff" class="fill-000000"></path><path d="M336.64 110.35H201a5.1 5.1 0 0 0 0 10.2h135.64a5.1 5.1 0 1 0 0-10.2ZM336.64 138.46H317a5.1 5.1 0 0 0 0 10.2h19.6a5.1 5.1 0 1 0 0-10.2ZM286 143.56a5.1 5.1 0 0 0-5.1-5.1H201a5.1 5.1 0 0 0 0 10.2h79.9a5.1 5.1 0 0 0 5.1-5.1ZM336.64 166.57h-49.73a5.1 5.1 0 0 0 0 10.2h49.73a5.1 5.1 0 1 0 0-10.2ZM238.93 166.57H201a5.1 5.1 0 1 0 0 10.2h37.94a5.1 5.1 0 0 0 0-10.2Z" fill="#ffffff" class="fill-000000"></path></svg>